<svg width="60" height="17" viewBox="0 0 60 17" fill="none" xmlns="http://www.w3.org/2000/svg">
<path fill-rule="evenodd" clip-rule="evenodd" d="M46.8926 2.12617C46.8926 2.90455 46.2567 3.53555 45.4723 3.53555C44.6878 3.53555 44.0519 2.90455 44.0519 2.12617C44.0519 1.34779 44.6878 0.716797 45.4723 0.716797C46.2567 0.716797 46.8926 1.34779 46.8926 2.12617ZM17.3552 16.6706C18.4803 16.6706 19.5667 16.0479 20.3621 15.2695H20.4203L20.5773 16.0307C20.6214 16.2446 20.8101 16.3981 21.0289 16.3981H22.5005C22.7551 16.3981 22.9616 16.1921 22.9616 15.9379V0.870198H21.3394C20.6604 0.870198 20.1099 1.41964 20.1099 2.09741V4.70354L20.2263 6.41589C19.4503 5.69592 18.6937 5.22892 17.4716 5.22892C15.1243 5.22892 12.9128 7.40828 12.9128 10.9692C12.9128 14.5301 14.6587 16.6706 17.3552 16.6706ZM18.0924 14.3161C16.6568 14.3161 15.8421 13.1875 15.8421 10.9303C15.8421 8.75092 16.8702 7.58341 18.0924 7.58341C18.7713 7.58341 19.4503 7.79745 20.1099 8.40066V13.1875C19.4891 14.0047 18.8489 14.3161 18.0924 14.3161ZM4.42325 10.4633L4.85005 8.88713C5.02806 8.26215 5.20607 7.74522 5.37986 7.24056C5.62274 6.53533 5.85735 5.85404 6.0722 4.93534H6.14978C6.38833 5.80546 6.61477 6.46941 6.84603 7.14749L6.84614 7.14778C7.02856 7.6827 7.21399 8.22643 7.41072 8.88713L7.8375 10.4633H4.42325ZM9.18931 15.3803C9.35327 15.9812 9.90001 16.3981 10.524 16.3981H12.0496C12.2588 16.3981 12.4069 16.1941 12.3417 15.9958L7.72298 1.93516C7.61949 1.62012 7.32491 1.4071 6.99273 1.4071H5.34632C5.0138 1.4071 4.71902 1.62054 4.61581 1.93601L0.0154192 15.9961C-0.0494781 16.1944 0.0985905 16.3981 0.307616 16.3981H1.73678C2.36076 16.3981 2.9075 15.9812 3.07146 15.3803L3.80248 12.701H8.45827L9.18931 15.3803ZM25.5924 15.9088C25.5924 16.163 25.7989 16.369 26.0535 16.369H27.9636C28.2183 16.369 28.4247 16.163 28.4247 15.9088V8.87749C29.2007 8.06023 29.8991 7.65161 30.5198 7.65161C31.548 7.65161 32.033 8.25482 32.033 9.92826V15.9088C32.033 16.163 32.2394 16.369 32.494 16.369H34.4235C34.6782 16.369 34.8846 16.163 34.8846 15.9088V8.87749C35.6606 8.06023 36.359 7.65161 36.9797 7.65161C38.0079 7.65161 38.4929 8.25482 38.4929 9.92826V15.9088C38.4929 16.163 38.6993 16.369 38.954 16.369H40.8834C41.1381 16.369 41.3445 16.163 41.3445 15.9088V9.578C41.3445 6.83434 40.2776 5.19983 37.9691 5.19983C36.5529 5.19983 35.5054 6.056 34.516 7.10676C33.9923 5.90033 33.0805 5.19983 31.5286 5.19983C30.1124 5.19983 29.1037 5.97817 28.1919 6.93164H28.1143L28.0319 6.1161C27.9686 5.4892 27.4398 5.01204 26.8085 5.01204H25.5924V15.9088ZM44.4494 4.90737H46.4379C46.6841 4.90737 46.8924 5.09529 46.8924 5.35837L46.9114 15.9193C46.9114 16.1636 46.7031 16.3703 46.4569 16.3703H44.4684C44.2222 16.3703 44.0139 16.1636 44.0139 15.9193L43.9949 5.35837C43.9949 5.11408 44.2032 4.90737 44.4494 4.90737ZM58.7477 6.09126C58.047 5.3208 57.119 4.94497 55.9449 4.94497C55.3199 4.94497 54.695 5.07651 54.1269 5.33959C53.4451 5.67784 52.8769 6.20401 52.4982 6.84293V6.09126C52.4982 5.41476 51.949 4.88859 51.2861 4.88859H49.6196V15.8817C49.6196 16.126 49.8279 16.3327 50.0741 16.3327H52.0626C52.3088 16.3327 52.5171 16.126 52.5171 15.8817V10.3382C52.5361 9.83081 52.6876 9.34222 52.9338 8.91001C53.4829 8.12077 54.3541 7.38789 55.0548 7.3503C55.5851 7.29393 56.0964 7.50064 56.4373 7.91406C56.7782 8.32747 56.9486 8.89122 56.9486 9.58652V15.9005C56.9486 16.1448 57.1569 16.3515 57.4031 16.3515H59.3727C59.6189 16.3515 59.8272 16.1448 59.8272 15.9005V9.09793C59.7893 7.85768 59.4484 6.86172 58.7477 6.09126Z" fill="#001B66"/>
</svg>
