<svg width="70" height="49" viewBox="0 0 70 49" fill="none" xmlns="http://www.w3.org/2000/svg">
<path d="M37.849 35.0583L35 26.9781L28.4743 8.56819C27.7309 6.09723 26.2111 3.93153 24.1403 2.39204C22.0695 0.85254 19.5578 0.0211645 16.9774 0.0211182H0L15.0728 42.7193C15.5402 44.2546 16.4887 45.599 17.7783 46.5542C19.0678 47.5094 20.6303 48.025 22.2351 48.0248C23.8015 48.0233 25.3279 47.5306 26.5995 46.6159C27.871 45.7013 28.8236 44.4108 29.3232 42.9262L31.9759 35.4296L32.0608 35.2121C32.2409 34.5988 32.6113 34.0587 33.1186 33.6698C33.6258 33.2809 34.2436 33.0633 34.8826 33.0485C35.5216 33.0338 36.1487 33.2226 36.6734 33.5877C37.1981 33.9527 37.5931 34.4752 37.8013 35.0795L37.849 35.0583Z" fill="#0A4BFF"/>
<path d="M32.151 35.0584L35 26.9782L41.5257 8.54707C42.2692 6.07611 43.7889 3.91042 45.8597 2.37092C47.9305 0.831422 50.4422 4.63041e-05 53.0226 0H70L54.9273 42.6982C54.4598 44.2335 53.5113 45.5778 52.2218 46.5331C50.9322 47.4883 49.3698 48.0039 47.7649 48.0037C46.1975 48.0081 44.6683 47.5205 43.3928 46.6096C42.1173 45.6987 41.1599 44.4104 40.6556 42.9263L37.9711 35.4297L37.8915 35.2122C37.7114 34.5989 37.341 34.0588 36.8337 33.6699C36.3265 33.281 35.7087 33.0634 35.0697 33.0486C34.4307 33.0339 33.8035 33.2227 33.2789 33.5878C32.7542 33.9528 32.3592 34.4753 32.151 35.0796V35.0584Z" fill="#0A4BFF"/>
</svg>
