<svg xmlns="http://www.w3.org/2000/svg" width="111.8" height="27.3" viewBox="0 0 86 21" fill="none">
<path d="M32.037 5.38406C31.0811 5.34658 30.1282 5.51384 29.2403 5.87496C28.3523 6.23609 27.5492 6.78298 26.8831 7.48005C26.2192 8.19833 25.702 9.04315 25.3617 9.96564C25.0214 10.8881 24.8647 11.87 24.9005 12.8544C24.9005 15.1344 25.6143 16.9649 27.0419 18.346C27.782 19.0419 28.6501 19.5827 29.5964 19.9373C30.5428 20.292 31.5487 20.4535 32.5567 20.4127C33.8837 20.469 35.207 20.2323 36.4353 19.7189C37.0869 19.4566 37.6464 19.0025 38.0417 18.4147C38.4371 17.827 38.6502 17.1327 38.6537 16.421C38.6248 16.0057 38.5623 15.5758 38.5623 15.5758C37.1272 16.6439 35.4163 17.2637 33.6394 17.3591C32.2439 17.3591 30.9157 17.2223 30.1169 16.5236C29.7133 16.1593 29.3847 15.7174 29.1501 15.2235C28.9156 14.7296 28.7796 14.1934 28.7503 13.6459H38.7595V13.0742C38.7595 10.6656 38.2398 8.77478 37.0175 7.41165C35.7953 6.04853 34.1351 5.38406 32.037 5.38406ZM32.1861 8.06146C32.5678 8.0277 32.952 8.08426 33.3085 8.22668C33.6651 8.3691 33.9842 8.5935 34.2409 8.88227C34.7846 9.54559 35.108 10.3664 35.1649 11.2274H28.8369C28.9208 10.3224 29.2963 9.47062 29.9052 8.80409C30.2163 8.52937 30.5783 8.32046 30.97 8.18958C31.3617 8.05871 31.7751 8.0085 32.1861 8.04192V8.06146Z" fill="#C2C2C2"/>
<path d="M19.4171 7.06446L17.011 16.5722L14.8985 9.73209C14.1718 7.48464 13.4067 5.93585 11.8812 5.93585C10.3558 5.93585 9.58583 7.48464 8.86401 9.73209L6.75147 16.5722L4.34539 7.06446C4.24475 6.60251 3.9921 6.18915 3.62908 5.89252C3.26606 5.59588 2.81433 5.43367 2.34834 5.43262H0C0 5.43262 2.66113 15.5755 3.0846 17.1584C3.56581 18.9613 4.77848 20.0899 6.61191 20.0899C8.44535 20.0899 9.35485 18.8294 9.81681 17.1047L11.8668 10.7532L13.9168 17.1047C14.398 18.8294 15.2882 20.0899 17.1217 20.0899C18.9551 20.0899 20.1726 18.9418 20.649 17.1584C21.0725 15.5608 23.7288 5.43262 23.7288 5.43262H21.3852C20.9238 5.43852 20.4779 5.60311 20.1204 5.89949C19.7629 6.19588 19.515 6.60655 19.4171 7.06446Z" fill="#C2C2C2"/>
<path d="M59.2032 7.06446L56.7971 16.5722L54.6846 9.73209C53.9628 7.48464 53.1976 5.93585 51.6674 5.93585C50.1371 5.93585 49.372 7.48464 48.6501 9.73209L46.5376 16.5722L44.1315 7.06446C44.0317 6.60209 43.7793 6.18823 43.4161 5.89144C43.0529 5.59466 42.6007 5.43278 42.1345 5.43262H39.7861C39.7861 5.43262 42.4473 15.5755 42.8707 17.1584C43.3519 18.9613 44.5646 20.0899 46.398 20.0899C48.2315 20.0899 49.1458 18.8294 49.6029 17.1047L51.6529 10.7532L53.7029 17.1047C54.1841 18.8294 55.0744 20.0899 56.9078 20.0899C58.7412 20.0899 59.9587 18.9418 60.4351 17.1584C60.8586 15.5608 63.5197 5.43262 63.5197 5.43262H61.1714C60.7101 5.4394 60.2647 5.6043 59.9074 5.90054C59.5501 6.19678 59.3019 6.60696 59.2032 7.06446Z" fill="#C2C2C2"/>
<path d="M68.7711 5.44775H66.2495C66.1745 5.44775 66.1003 5.46283 66.0311 5.4921C65.9619 5.52138 65.899 5.56428 65.8463 5.61834C65.7935 5.67239 65.7517 5.73653 65.7235 5.80704C65.6952 5.87755 65.681 5.95304 65.6817 6.02916L65.7057 19.7484C65.7057 19.9013 65.7655 20.0479 65.872 20.156C65.9785 20.2642 66.1229 20.3249 66.2735 20.3249H68.7951C68.9457 20.3249 69.0902 20.2642 69.1966 20.156C69.3031 20.0479 69.363 19.9013 69.363 19.7484L69.3389 6.02916C69.3395 5.95304 69.3253 5.87755 69.2971 5.80704C69.2688 5.73653 69.2271 5.67239 69.1743 5.61834C69.1215 5.56428 69.0587 5.52138 68.9895 5.4921C68.9203 5.46283 68.846 5.44775 68.7711 5.44775Z" fill="#C2C2C2"/>
<path d="M84.4047 6.99605C83.9506 6.50387 83.3964 6.11785 82.7807 5.86476C82.165 5.61167 81.5024 5.49755 80.8389 5.53032C80.0401 5.52196 79.2501 5.6991 78.5291 6.04821C77.6595 6.47434 76.9355 7.15499 76.4502 8.00252V7.02536C76.4502 6.60897 76.2876 6.20955 75.9981 5.91466C75.7085 5.61976 75.3156 5.45344 74.9055 5.45215H72.793V19.7479C72.793 19.8236 72.8077 19.8986 72.8362 19.9685C72.8647 20.0385 72.9066 20.102 72.9593 20.1556C73.012 20.2091 73.0746 20.2516 73.1435 20.2805C73.2124 20.3095 73.2862 20.3244 73.3608 20.3244H75.8824C75.9569 20.3244 76.0308 20.3095 76.0997 20.2805C76.1686 20.2516 76.2312 20.2091 76.2839 20.1556C76.3366 20.102 76.3784 20.0385 76.407 19.9685C76.4355 19.8986 76.4502 19.8236 76.4502 19.7479V12.5072C76.4773 11.8559 76.6625 11.2215 76.9892 10.6604C77.6773 9.62459 78.8034 8.67675 79.6792 8.62301C80.0104 8.58631 80.3453 8.63412 80.6537 8.76209C80.9621 8.89007 81.2342 9.09416 81.4452 9.35587C81.9039 9.98178 82.132 10.7511 82.0901 11.53V19.7479C82.0901 19.8236 82.1048 19.8986 82.1333 19.9685C82.1618 20.0385 82.2036 20.102 82.2564 20.1556C82.3091 20.2091 82.3717 20.2516 82.4406 20.2805C82.5095 20.3095 82.5833 20.3244 82.6579 20.3244H85.165C85.24 20.3251 85.3144 20.3106 85.3838 20.2819C85.4533 20.2533 85.5164 20.2109 85.5697 20.1573C85.6229 20.1037 85.6652 20.0399 85.694 19.9697C85.7228 19.8994 85.7377 19.824 85.7377 19.7479V10.9144C85.8015 9.48355 85.3247 8.08193 84.4047 6.99605Z" fill="#C2C2C2"/>
<path d="M67.5242 3.67409C68.5235 3.67409 69.3336 2.85162 69.3336 1.83704C69.3336 0.822471 68.5235 0 67.5242 0C66.5249 0 65.7148 0.822471 65.7148 1.83704C65.7148 2.85162 66.5249 3.67409 67.5242 3.67409Z" fill="#C2C2C2"/>
</svg>